<svg version="1.1" id="_allow_circle_line"
	 xmlns="http://www.w3.org/2000/svg" xmlns:xlink="http://www.w3.org/1999/xlink" x="0px" y="0px" viewBox="0 0 64 64"
	 style="enable-background:new 0 0 64 64;" xml:space="preserve">
<path d="M32,63.769C14.483,63.769,0.232,49.517,0.232,32C0.232,14.483,14.483,0.232,32,0.232c17.517,0,31.769,14.251,31.769,31.768
	C63.769,49.517,49.517,63.769,32,63.769z M32,1.649C15.265,1.649,1.649,15.265,1.649,32S15.265,62.351,32,62.351
	S62.351,48.735,62.351,32S48.735,1.649,32,1.649z"/>
<polygon points="26.068,45.887 25.182,44.779 41.156,32 25.182,19.22 26.068,18.114 43.426,32 "/>
</svg>
