<svg version="1.1" id="hita_x5F_city_x5F_symbol" xmlns="http://www.w3.org/2000/svg" xmlns:xlink="http://www.w3.org/1999/xlink"
	 x="0px" y="0px" viewBox="0 0 250 250" style="enable-background:new 0 0 250 250;" xml:space="preserve">
<path id="path3789" d="M124.976,0C55.943,0,0,55.99,0,125.024S55.943,250,124.976,250
	S250,194.057,250,125.024S194.01,0,124.976,0z M124.976,27.725c49.022,0,89.561,36.252,96.297,83.413h-72.247l16.511-26.961
	c4.026-6.534,1.993-15.095-4.541-19.122c-2.193-1.351-4.717-2.066-7.293-2.066H50.057C67.892,41.454,94.823,27.725,124.976,27.725z
	 M33.928,90.809h94.961l-12.455,20.328H28.727C29.733,104.086,31.496,97.289,33.928,90.809L33.928,90.809z M28.727,138.91h70.672
	l-15.556,25.387c-4.026,6.534-1.993,15.095,4.541,19.122c2.193,1.351,4.717,2.066,7.293,2.066h105.507
	c-17.825,22.44-45.325,36.839-76.207,36.839C75.954,222.323,35.456,186.071,28.727,138.91L28.727,138.91z M131.991,138.91h89.282
	c-0.926,6.484-2.49,12.747-4.629,18.754h-96.154L131.991,138.91z"/>
</svg>
