<svg version="1.1" id="icon_twitter" xmlns="http://www.w3.org/2000/svg" xmlns:xlink="http://www.w3.org/1999/xlink" x="0px"
	 y="0px" viewBox="0 0 170.079 170.08" style="enable-background:new 0 0 170.079 170.08;" xml:space="preserve">
<path d="M141.012,0H29.063C13.011,0,0,13.012,0,29.063v111.951c0,16.054,13.011,29.066,29.063,29.066h111.949
	c16.055,0,29.066-13.012,29.066-29.066V29.063C170.079,13.012,157.067,0,141.012,0z M141.893,56.013
	c-4.116,4.117-6.041,5.078-6.041,5.078l-0.053-0.07c-1.104,34.693-24.303,70.02-65.4,72.18
	c-15.489,0.814-29.736-5.493-40.821-14.626c3.988,1.19,8.19,1.839,12.539,1.839c8.39,0,16.216-3.16,22.963-8.347
	c0,0-23.015-6.345-22.4-17.025l10.988-0.309c0,0-7.032-2.177-10.883-5.649c-6.608-5.953-10.43-14.251-8.525-18.896
	c0,0,1.211,1.072,4.416,2.156c3.205,1.082,6.263,1.027,6.263,1.027s-6.841-4.858-8.832-10.27C33,54.647,34.583,43.865,37.649,40.61
	c0,0,1.222,6.848,20.749,16.739c9.897,5.016,21.013,8.572,29.685,8.811c-0.676-1.961-0.999-5.887-0.999-8.04
	c0-11.773,10.92-21.31,24.386-21.31c7.568,0,14.337,3.015,18.809,7.748l6.477-2.923l7.744-3.288c0.002,0.04,0.412,0.451,0.064,1.644
	c-0.799,2.762-6.861,8.663-9.262,10.587l-0.085,0.49c0,0,2.034,0.112,4.615-0.601c2.584-0.712,8.739-3.388,8.739-3.388
	S146.009,51.896,141.893,56.013z"/>
</svg>
