<svg version="1.1" id="icon_instagram" xmlns="http://www.w3.org/2000/svg" xmlns:xlink="http://www.w3.org/1999/xlink" x="0px"
	 y="0px" viewBox="0 0 170.079 170.08" style="enable-background:new 0 0 170.079 170.08;" xml:space="preserve">
<g>
	<path d="M141.017,0H29.063C13.01,0,0,13.012,0,29.063v111.951c0,16.054,13.01,29.066,29.063,29.066h111.954
		c16.052,0,29.062-13.012,29.062-29.066V29.063C170.079,13.012,157.069,0,141.017,0z M155.719,108.906
		c0,24.04-19.56,43.6-43.597,43.6H57.956c-24.038,0-43.597-19.559-43.597-43.6V61.175c0-24.04,19.558-43.597,43.597-43.597h54.167
		c24.036,0,43.597,19.557,43.597,43.597V108.906z"/>
	<path d="M112.123,27.267H57.956c-18.697,0-33.907,15.21-33.907,33.908v47.731c0,18.699,15.21,33.909,33.907,33.909h54.167
		c18.695,0,33.907-15.21,33.907-33.909V61.175C146.03,42.477,130.818,27.267,112.123,27.267z M85.039,123.85
		c-21.401,0-38.807-17.409-38.807-38.808c0-21.402,17.406-38.807,38.807-38.807c21.399,0,38.807,17.406,38.807,38.807
		C123.847,106.441,106.439,123.85,85.039,123.85z M123.255,55.478c-4.448,0-8.055-3.605-8.055-8.051
		c0-4.448,3.607-8.054,8.055-8.054c4.446,0,8.05,3.606,8.05,8.054C131.305,51.872,127.701,55.478,123.255,55.478z"/>
	<path d="M85.039,55.92c-16.057,0-29.121,13.063-29.121,29.122c0,16.056,13.064,29.119,29.121,29.119s29.119-13.063,29.119-29.119
		C114.158,68.983,101.096,55.92,85.039,55.92z"/>
</g>
</svg>
