<?xml version="1.0" encoding="utf-8"?>
<svg version="1.1" id="mrlshita_title" xmlns="http://www.w3.org/2000/svg" xmlns:xlink="http://www.w3.org/1999/xlink" x="0px"
	 y="0px" viewBox="0 0 953.006 109.932" style="enable-background:new 0 0 953.006 109.932;" xml:space="preserve">
<g>
	<path d="M75.382,18.604v79.488c0,3.624-7.853,6.886-12.443,6.886c-2.658,0-4.47-1.449-4.47-3.986v-7.61H16.792v4.953
		c0,6.281-10.631,8.214-12.926,8.214C0,106.549,0,104.013,0,101.959V1.57l17.154,7.853h41.194l4.59-4.953
		c1.812-1.933,3.02-2.174,3.986-2.174c1.45,0,2.658,0.725,3.745,1.57l7.852,6.281c1.45,1.088,1.45,2.175,1.45,2.658
		C79.972,14.135,79.852,15.101,75.382,18.604z M58.469,12.201H16.792v37.691h41.677V12.201z M58.469,52.671H16.792v37.933h41.677
		V52.671z"/>
	<path d="M204.884,16.067v82.871c0,5.437-6.402,7.61-11.959,7.61c-4.228,0-4.47-1.57-4.47-5.557v-6.161h-64.509v5.074
		c0,2.778-0.362,4.228-2.054,5.315c-1.933,1.208-6.644,2.778-10.389,2.778c-1.933,0-3.866-0.725-3.866-3.624V0.121l17.154,8.336
		h62.576l3.262-4.953c1.329-2.054,2.658-2.778,4.229-2.778c1.208,0,2.174,0.482,3.745,1.69l7.973,6.282
		c0.604,0.483,1.329,1.329,1.329,2.778C207.904,12.685,207.663,13.047,204.884,16.067z M148.348,11.114h-24.402v38.778h24.402
		V11.114z M148.348,52.55h-24.402v39.503h24.402V52.55z M188.455,11.114h-21.503c0.362,0.483,0.604,0.846,0.604,1.691
		c0,2.416-1.933,3.02-3.866,3.503v33.584h24.765V11.114z M188.455,52.55H163.69v39.503h24.765V52.55z"/>
	<path d="M252.258,98.18c4.831-0.84,22.542-5.601,22.542-26.323c0-16.381-14.352-18.621-19.112-18.621c-1.4,0-2.38,0.14-2.94,0.21
		c2.24,2.38,2.24,4.271,2.24,5.181c0,3.64-2.871,21.632-14.142,33.323c-1.96,2.03-3.99,4.13-6.161,4.13
		c-2.17,0-3.36-1.609-3.57-3.57c-0.35-2.52-0.49-3.43-1.54-4.55c-2.66-2.661-3.78-3.851-3.78-8.961
		c0-13.512,11.761-28.563,30.873-28.563c17.572,0,26.113,12.041,26.113,24.992c0,22.963-26.463,23.383-27.373,23.383
		c-1.47,0-2.1-0.07-3.15-0.21V98.18z M232.796,77.317c0,0.49,0.14,8.261,3.01,8.261c5.181,0,14.981-19.112,14.981-28.353
		c0-1.19-0.21-2.24-0.42-3.291C238.676,57.016,232.796,68.427,232.796,77.317z"/>
	<path d="M399.411,30.201v71.637c0,3.141-5.798,7.007-11.959,7.007c-3.382,0-4.228-0.967-4.228-3.262V94.711h-65.355v6.765
		c0,1.691,0,4.107-2.899,5.919c-3.262,1.934-7.369,2.537-8.818,2.537c-2.295,0-4.711-0.966-4.711-3.383V22.832l18.845,1.57
		c1.691,0.121,2.416,1.208,2.416,2.658c0,0.846,0,1.691-4.832,3.624v61.368h24.765V0l17.517,1.812
		c1.208,0.121,2.537,0.725,2.537,2.657c0,1.57-0.604,1.934-3.866,3.262v84.321h24.402V22.591l18,2.174
		c0.483,0,2.175,0.242,2.175,2.175C403.398,28.147,402.794,28.872,399.411,30.201z"/>
	<path d="M431.104,65.347c-0.42-14.212-0.84-16.522-4.55-18.412c-0.35-0.21-2.45-0.631-2.45-1.051c0-1.26,3.5-1.68,5.25-1.68
		c4.97,0,9.241,3.08,9.241,5.461c0,0.63-0.07,0.84-0.56,2.38c-0.42,1.4-0.7,5.11-0.7,8.681c0,1.82,0,7.001,1.05,8.821
		c1.75-0.771,10.641-4.061,12.461-5.181c0.14-0.07,2.38-1.33,2.38-2.381c0-0.35-0.21-0.63-0.84-1.399c0,0-1.19-1.12-1.19-1.33
		c0-0.42,1.12-0.841,2.38-0.841c4.831,0,8.401,6.021,8.401,7.981c0,2.66-3.01,3.15-6.65,3.71c-4.061,0.7-8.121,1.61-12.042,2.73
		c-7.421,2.17-17.992,6.091-17.992,13.722c0,8.261,9.171,8.331,13.372,8.331c6.371,0,12.111-1.4,13.301-1.751
		c2.17-0.699,3.92-1.26,4.9-1.26c2.03,0,5.951,2.101,5.951,4.551c0,0.56-0.28,1.82-1.33,2.59c-1.89,1.54-16.452,2.381-18.972,2.381
		c-8.401,0-21.632-1.541-21.632-13.231c0-7.911,6.861-13.021,12.321-16.032C431.664,70.736,431.244,69.616,431.104,65.347z"/>
	<path d="M505.845,9.906v43.248c0,13.771,0,37.932-31.65,55.328l-0.725-0.967c7.973-8.335,15.946-21.865,15.946-48.442V1.812
		l18.483,2.054c0.967,0.121,2.537,0.604,2.537,2.174C510.436,7.369,509.59,8.215,505.845,9.906z M541.965,18.121v76.106
		c0,5.073-6.886,6.765-11.477,6.765c-3.02,0-4.832-0.967-4.832-4.47V10.39l17.517,1.449c1.57,0.121,3.504,0.604,3.504,2.778
		C546.677,16.43,545.227,17.033,541.965,18.121z M579.052,8.094v91.932c0,3.262,0,5.195-4.711,6.887
		c-2.899,0.966-6.04,1.208-6.886,1.208c-4.35,0-4.833-1.812-4.833-3.987V1.208l16.913,1.208c3.021,0.242,3.624,1.088,3.624,2.416
		C583.16,6.403,581.831,7.128,579.052,8.094z"/>
	<path d="M610.505,65.347c-0.421-14.212-0.841-16.522-4.551-18.412c-0.351-0.21-2.45-0.631-2.45-1.051c0-1.26,3.5-1.68,5.25-1.68
		c4.971,0,9.241,3.08,9.241,5.461c0,0.63-0.07,0.84-0.56,2.38c-0.421,1.4-0.7,5.11-0.7,8.681c0,1.82,0,7.001,1.05,8.821
		c1.75-0.771,10.642-4.061,12.461-5.181c0.141-0.07,2.381-1.33,2.381-2.381c0-0.35-0.21-0.63-0.841-1.399c0,0-1.189-1.12-1.189-1.33
		c0-0.42,1.12-0.841,2.38-0.841c4.831,0,8.401,6.021,8.401,7.981c0,2.66-3.011,3.15-6.651,3.71c-4.06,0.7-8.12,1.61-12.041,2.73
		c-7.421,2.17-17.992,6.091-17.992,13.722c0,8.261,9.171,8.331,13.372,8.331c6.37,0,12.111-1.4,13.301-1.751
		c2.171-0.699,3.921-1.26,4.9-1.26c2.03,0,5.951,2.101,5.951,4.551c0,0.56-0.28,1.82-1.33,2.59
		c-1.891,1.54-16.452,2.381-18.972,2.381c-8.401,0-21.633-1.541-21.633-13.231c0-7.911,6.86-13.021,12.321-16.032
		C611.065,70.736,610.645,69.616,610.505,65.347z"/>
	<path d="M770.471,48.08h-33.825c0.604,0.362,1.087,0.725,1.087,1.45c0,1.087-0.362,1.328-3.382,3.382v33.704
		c0,2.779,0,4.833,5.678,4.833h13.288c5.557,0,9.302-6.403,14.134-21.021h1.208l-2.899,18.121c-0.241,1.691,0.121,1.933,3.262,3.865
		c0.846,0.604,2.537,2.658,2.537,5.074c0,1.208-0.362,3.141-1.57,5.073c-1.087,1.57-2.899,3.383-7.007,3.383h-32.737
		c-8.939,0-11.477-5.557-11.477-9.664v-2.778V48.08h-19.933l11.234,2.778c2.416,0.604,3.624,0.967,3.624,2.537
		c0,2.054-2.536,2.778-4.228,3.262c-0.726,10.993-1.691,21.383-8.819,31.288c-5.798,8.094-17.879,17.638-38.898,20.657l-0.362-1.208
		c12.685-5.557,22.59-16.671,26.335-23.557c5.557-10.269,6.04-22.47,6.04-35.758h-31.288l-1.449-2.657h48.08V0l16.671,1.57
		c1.087,0.121,2.898,0.363,2.898,2.175c0,1.208-0.362,1.45-4.47,3.624v38.054h26.698l7.007-8.457
		c0.482-0.604,0.846-1.087,1.812-1.087c0.846,0,1.329,0.242,2.296,0.967l9.302,7.61c0.604,0.483,1.208,1.087,1.208,2.054
		C772.525,47.718,771.317,48.08,770.471,48.08z M690.257,43.007c-6.886,0-8.939-5.195-8.939-11.839
		c0-11.235-2.537-17.396-10.51-26.456l0.725-0.967c17.879,5.437,28.147,17.879,28.147,27.906
		C699.68,34.55,698.592,43.007,690.257,43.007z M754.042,15.584c-8.456,12.201-19.328,22.47-27.302,26.939l-0.966-0.846
		c6.765-10.269,10.63-26.335,11.476-37.812l20.175,6.523c0.362,0.12,2.054,0.725,2.054,2.174
		C759.478,14.376,757.666,14.738,754.042,15.584z"/>
	<path d="M798.904,65.347c-0.42-14.212-0.84-16.522-4.55-18.412c-0.351-0.21-2.45-0.631-2.45-1.051c0-1.26,3.5-1.68,5.25-1.68
		c4.971,0,9.241,3.08,9.241,5.461c0,0.63-0.07,0.84-0.56,2.38c-0.421,1.4-0.7,5.11-0.7,8.681c0,1.82,0,7.001,1.05,8.821
		c1.75-0.771,10.641-4.061,12.461-5.181c0.141-0.07,2.381-1.33,2.381-2.381c0-0.35-0.21-0.63-0.84-1.399c0,0-1.19-1.12-1.19-1.33
		c0-0.42,1.12-0.841,2.38-0.841c4.831,0,8.401,6.021,8.401,7.981c0,2.66-3.011,3.15-6.651,3.71c-4.061,0.7-8.12,1.61-12.041,2.73
		c-7.421,2.17-17.992,6.091-17.992,13.722c0,8.261,9.172,8.331,13.372,8.331c6.37,0,12.111-1.4,13.301-1.751
		c2.171-0.699,3.921-1.26,4.901-1.26c2.029,0,5.95,2.101,5.95,4.551c0,0.56-0.28,1.82-1.33,2.59
		c-1.891,1.54-16.452,2.381-18.972,2.381c-8.401,0-21.633-1.541-21.633-13.231c0-7.911,6.861-13.021,12.321-16.032
		C799.464,70.736,799.044,69.616,798.904,65.347z"/>
	<path d="M950.953,45.905H842.349l-1.449-2.657h35.879c-3.141-2.295-3.141-3.745-3.504-10.631
		c-0.362-7.61-2.778-11.234-7.127-16.066h-14.376l-1.449-2.658h39.141V0l15.825,1.088c2.295,0.12,2.778,1.328,2.778,2.054
		c0,1.328-0.967,1.812-3.624,3.382v7.369h21.624l6.281-7.127c0.483-0.604,0.967-1.088,1.934-1.088c0.604,0,0.966,0.121,2.174,0.967
		l8.456,6.161c1.088,0.846,1.208,1.812,1.208,2.174c0,1.209-1.087,1.571-2.054,1.571h-26.093l11.597,5.194
		c1.57,0.725,1.812,1.208,1.812,2.054c0,2.054-1.57,2.054-5.315,2.174c-6.04,6.523-11.355,11.719-17.396,17.275h24.04l6.645-8.577
		c0.483-0.604,0.967-1.087,1.933-1.087c0.846,0,1.45,0.362,2.175,0.966l8.335,7.49c0.121,0.121,1.209,1.087,1.209,2.295
		S951.918,45.905,950.953,45.905z M931.261,65.718v37.69c0,4.349-7.973,5.437-11.114,5.437c-1.691,0-3.986-0.483-3.986-3.383v-6.281
		h-38.174v4.59c0,4.591-8.215,5.558-11.598,5.558c-4.228,0-4.228-2.537-4.228-4.712V49.771l16.309,6.765h37.207l3.986-5.678
		c0.604-0.966,1.571-1.208,2.658-1.208c0.967,0,1.449,0.242,2.416,0.846l8.939,5.92c1.57,1.087,1.933,1.812,1.933,2.778
		C935.61,61.973,932.832,63.664,931.261,65.718z M871.826,16.551c5.678,2.054,18.241,6.644,18.241,17.758
		c0,0.846,0,5.557-4.47,8.939h18.362c3.745-12.201,4.953-20.778,5.678-26.697H871.826z M916.161,59.194h-38.174v17.033h38.174
		V59.194z M916.161,79.006h-38.174v17.517h38.174V79.006z"/>
</g>
</svg>
